{"title":"This Is Where I Leave You (2014) Dual Audio BDRip 1080p MKV","uid":11653287,"size":13103199913,"categoryP":"video","categoryS":"hd___movies","magnet":"?xt=urn:btih:bfca7c5d7f8ddb492f19685bcff1b904e776b50e&amp;dn=This+Is+Where+I+Leave+You+%282014%29+Dual+Audio+BDRip+1080p+MKV&amp;tr=udp%3A%2F%2Ftracker.openbittorrent.com%3A80&amp;tr=udp%3A%2F%2Fopen.demonii.com%3A1337&amp;tr=udp%3A%2F%2Ftracker.coppersurfer.tk%3A6969&amp;tr=udp%3A%2F%2Fexodus.desync.com%3A6969","seeders":12,"leechers":0,"uploader":"darkj6","files":-1,"time":1417899724,"description":" ______   _______  ______    ___   _      ___  --------|\n|      | |   _   ||    _ |  |   | | |    |   ||   |----|    \n|  _    ||  |_|  ||   | ||  |   |_| |    |   ||   |___ \n| | |   ||       ||   |_||_ |      _|    |   ||    _  |\n| |_|   ||       ||    __  ||     |_  ___|   ||   | | |\n|       ||   _   ||   |  | ||    _  ||       ||   |_| |\n|______| |__| |__||___|  |_||___| |_||_______||_______|\n                                                                          &lt;a href=&quot;\nhttps://thepiratebay.se/user/darkj6/&quot; rel=&quot;nofollow&quot; target=&quot;_NEW&quot;&gt;\nhttps://thepiratebay.se/user/darkj6/&lt;/a&gt;\n\nJoin ThePirateBay Forum:\n                                                                                                   &lt;a href=&quot;\nhttps://forum.suprbay.org/member.php?action=register&amp;referrer=908&quot; rel=&quot;nofollow&quot; target=&quot;_NEW&quot;&gt;\nhttps://forum.suprbay.org/member.php?action=register&amp;referrer=908&lt;/a&gt;\n  &lt;a href=&quot;\nhttp://www.imdb.com/title/tt1371150/&quot; rel=&quot;nofollow&quot; target=&quot;_NEW&quot;&gt;\nhttp://www.imdb.com/title/tt1371150/&lt;/a&gt;\n\n\nCodec: mkv \n\nQuality: BDRip 1080p \n\nVideo: MPEG-4 AVC, 14.5 Mbit / s, 1920x800, 23,976 fps \n\nAudio: Audio: Rus, AC3, 384 kb / s (6 ch), 48 kHz \n\nAudio 2: Eng , DTS, 1510 kb / s (6 ch), 48 kHz \n\nAudio 3: Eng, AC3, 192 kb / s (2 ch), 48 kHz - commentary with Shawn Levy and Jonathan Tropper \n\nSubtitles: Rus, Eng\n\n\nFormat : Matroska\nFormat version : Version 4 / Version 2\nFile size : 12.2 GiB\nDuration : 1h 43mn\nOverall bit rate : 16.9 Mbps\nMovie name : Tonik\nEncoded date : UTC 2014-12-06 11:16:54\nWriting application : mkvmerge v7.1.0 ('Good Love') 64bit built on Jul 27 2014 13:06:55\nWriting library : libebml v1.3.0 + libmatroska v1.4.1\n_STATISTICS_WRITING_APP : mkvmerge v7.1.0 ('Good Love') 64bit built on Jul 27 2014 13:06:55\n_STATISTICS_WRITING_DATE_UTC : 2014-12-06 11:16:54\n_STATISTICS_TAGS : BPS DURATION NUMBER_OF_FRAMES NUMBER_OF_BYTES\nDURATION : 01:42:23.596000000\nNUMBER_OF_FRAMES : 1759\nNUMBER_OF_BYTES : 70530\n\nVideo\nID : 1\nFormat : AVC\nFormat/Info : Advanced Video Codec\nFormat profile : &lt;a class=&quot;__cf_email__&quot; href=&quot;/cdn-cgi/l/email-protection&quot; data-cfemail=&quot;c981a0aea18985fde7f8&quot;&gt;[email&amp;#160;protected]&lt;/a&gt;&lt;script cf-hash='f9e31' type=&quot;text/javascript&quot;&gt;\n/* &lt;![CDATA[ */!function(){try{var t=&quot;currentScript&quot;in document?document.currentScript:function(){for(var t=document.getElementsByTagName(&quot;script&quot;),e=t.length;e--;)if(t[e].getAttribute(&quot;cf-hash&quot;))return t[e]}();if(t&amp;&amp;t.previousSibling){var e,r,n,i,c=t.previousSibling,a=c.getAttribute(&quot;data-cfemail&quot;);if(a){for(e=&quot;&quot;,r=parseInt(a.substr(0,2),16),n=2;a.length-n;n+=2)i=parseInt(a.substr(n,2),16)^r,e+=String.fromCharCode(i);e=document.createTextNode(e),c.parentNode.replaceChild(e,c)}}}catch(u){}}();/* ]]&gt; */&lt;/script&gt;\nFormat settings, CABAC : Yes\nFormat settings, ReFrames : 5 frames\nCodec ID : V_MPEG4/ISO/AVC\nDuration : 1h 43mn\nBit rate : 14.5 Mbps\nWidth : 1 920 pixels\nHeight : 800 pixels\nDisplay aspect ratio : 2.40:1\nFrame rate mode : Constant\nFrame rate : 23.976 fps\nColor space : YUV\nChroma subsampling : 4:2:0\nBit depth : 8 bits\nScan type : Progressive\nBits/(Pixel*Frame) : 0.393\nStream size : 10.5 GiB (86%)\nWriting library : x264 core 142 r2491kMod 24e4fed\nEncoding settings : cabac=1 / ref=5 / deblock=1:-3:-3 / analyse=0x3:0x133 / me=umh / subme=10 / psy=1 / fade_compensate=0.00 / psy_rd=0.97:0.00 / mixed_ref=1 / me_range=24 / chroma_me=1 / trellis=2 / 8x8dct=1 / cqm=0 / deadzone=21,11 / fast_pskip=0 / chroma_qp_offset=-2 / threads=18 / lookahead_threads=4 / sliced_threads=0 / nr=0 / decimate=1 / interlaced=0 / bluray_compat=0 / constrained_intra=0 / fgo=0 / bframes=10 / b_pyramid=2 / b_adapt=2 / b_bias=0 / direct=3 / weightb=1 / open_gop=0 / weightp=2 / keyint=250 / keyint_min=23 / scenecut=40 / intra_refresh=0 / rc_lookahead=40 / rc=crf / mbtree=0 / crf=17.5000 / qcomp=0.65 / qpmin=0 / qpmax=69 / qpstep=4 / vbv_maxrate=50000 / vbv_bufsize=62500 / crf_max=0.0 / nal_hrd=none / filler=0 / ip_ratio=1.30 / pb_ratio=1.20 / aq=1:0.88\nLanguage : English\nDefault : Yes\nForced : No\n_STATISTICS_WRITING_APP : mkvmerge v7.1.0 ('Good Love') 64bit built on Jul 27 2014 13:06:55\n_STATISTICS_WRITING_DATE_UTC : 2014-12-06 11:16:54\n_STATISTICS_TAGS : BPS DURATION NUMBER_OF_FRAMES NUMBER_OF_BYTES\nDURATION : 01:43:18.568000000\nNUMBER_OF_FRAMES : 148617\nNUMBER_OF_BYTES : 11484999488\n\nAudio #1\nID : 2\nFormat : AC-3\nFormat/Info : Audio Coding 3\nMode extension : CM (complete main)\nFormat settings, Endianness : Big\nCodec ID : A_AC3\nDuration : 1h 43mn\nBit rate mode : Constant\nBit rate : 384 Kbps\nChannel(s) : 6 channels\nChannel positions : Front: L C R, Side: L R, LFE\nSampling rate : 48.0 KHz\nBit depth : 16 bits\nCompression mode : Lossy\nStream size : 284 MiB (2%)\nLanguage : Russian\nDefault : Yes\nForced : No\n\nAudio #2\nID : 3\nFormat : DTS\nFormat/Info : Digital Theater Systems\nMode : 16\nFormat settings, Endianness : Big\nCodec ID : A_DTS\nDuration : 1h 43mn\nBit rate mode : Constant\nBit rate : 1 509 Kbps\nChannel(s) : 6 channels\nChannel positions : Front: L C R, Side: L R, LFE\nSampling rate : 48.0 KHz\nBit depth : 24 bits\nCompression mode : Lossy\nStream size : 1.09 GiB (9%)\nLanguage : English\nDefault : No\nForced : No\n\nAudio #3\nID : 4\nFormat : AC-3\nFormat/Info : Audio Coding 3\nFormat profile : Dolby Digital\nMode extension : CM (complete main)\nFormat settings, Endianness : Big\nCodec ID : A_AC3\nDuration : 1h 43mn\nBit rate mode : Constant\nBit rate : 192 Kbps\nChannel(s) : 2 channels\nChannel positions : Front: L R\nSampling rate : 48.0 KHz\nBit depth : 16 bits\nCompression mode : Lossy\nStream size : 142 MiB (1%)\nTitle : Commentary with Shawn Levy and Jonathan Tropper\nLanguage : English\nDefault : No\nForced : No\n\nText #1\nID : 5\nFormat : UTF-8\nCodec ID : S_TEXT/UTF8\nCodec ID/Info : UTF-8 Plain Text\nLanguage : Russian\nDefault : No\nForced : No\n\nText #2\nID : 6\nFormat : UTF-8\nCodec ID : S_TEXT/UTF8\nCodec ID/Info : UTF-8 Plain Text\nLanguage : English\nDefault : No\nForced : No\n\nMenu\n00:00:00.000 : en:00:00:00.000\n00:09:09.716 : en:00:09:09.716\n00:21:54.605 : en:00:21:54.605\n00:30:50.348 : en:00:30:50.348\n00:39:28.866 : en:00:39:28.866\n00:50:38.244 : en:00:50:38.244\n01:01:14.254 : en:01:01:14.254\n01:09:18.321 : en:01:09:18.321\n01:20:55.434 : en:01:20:55.434\n01:29:12.514 : en:01:29:12.514\n01:40:07.335 : en:01:40:07.335","torrent":{"xt":"urn:btih:bfca7c5d7f8ddb492f19685bcff1b904e776b50e","amp;dn":"This+Is+Where+I+Leave+You+%282014%29+Dual+Audio+BDRip+1080p+MKV","amp;tr":["udp%3A%2F%2Ftracker.openbittorrent.com%3A80","udp%3A%2F%2Fopen.demonii.com%3A1337","udp%3A%2F%2Ftracker.coppersurfer.tk%3A6969","udp%3A%2F%2Fexodus.desync.com%3A6969"],"infoHash":"bfca7c5d7f8ddb492f19685bcff1b904e776b50e","infoHashBuffer":{"type":"Buffer","data":[191,202,124,93,127,141,219,73,47,25,104,91,207,241,185,4,231,118,181,14]},"announce":[],"urlList":[]}}